<mxfile host="app.diagrams.net" agent="Mozilla/5.0 (X11; Ubuntu; Linux x86_64; rv:137.0) Gecko/20100101 Firefox/137.0" version="26.2.14" pages="2">
  <diagram name="Page-1" id="Dg-g7MD_F9sybJDa8Roz">
    <mxGraphModel dx="1356" dy="920" grid="1" gridSize="10" guides="1" tooltips="1" connect="1" arrows="1" fold="1" page="1" pageScale="1" pageWidth="850" pageHeight="1100" math="0" shadow="0">
      <root>
        <mxCell id="0" />
        <mxCell id="1" parent="0" />
        <mxCell id="I4bARq4R7i5eUATzcsC8-1" value="" style="rounded=0;whiteSpace=wrap;html=1;fillColor=#fad7ac;strokeColor=#b46504;container=0;fontSize=13;" parent="1" vertex="1">
          <mxGeometry x="156.34146341463418" y="390" width="248.78048780487808" height="190" as="geometry" />
        </mxCell>
        <mxCell id="I4bARq4R7i5eUATzcsC8-2" value="&lt;div&gt;the/&lt;/div&gt;&lt;div&gt;the&lt;/div&gt;" style="rounded=1;whiteSpace=wrap;html=1;container=0;fillColor=#bac8d3;strokeColor=#23445d;fontSize=13;" parent="1" vertex="1">
          <mxGeometry x="168.78" y="404.62" width="51.22" height="29.23" as="geometry" />
        </mxCell>
        <mxCell id="I4bARq4R7i5eUATzcsC8-14" value="&lt;div&gt;the/&lt;/div&gt;&lt;div&gt;cat&lt;/div&gt;" style="rounded=1;whiteSpace=wrap;html=1;container=0;fillColor=#D7DEE3;strokeColor=#23445d;fontSize=13;" parent="1" vertex="1">
          <mxGeometry x="226" y="404.62" width="51.22" height="29.23" as="geometry" />
        </mxCell>
        <mxCell id="I4bARq4R7i5eUATzcsC8-15" value="&lt;div&gt;the/&lt;/div&gt;&lt;div&gt;is&lt;/div&gt;" style="rounded=1;whiteSpace=wrap;html=1;container=0;fillColor=#CBD1D6;strokeColor=#23445d;fontSize=13;" parent="1" vertex="1">
          <mxGeometry x="283.22" y="404.62" width="51.22" height="29.23" as="geometry" />
        </mxCell>
        <mxCell id="I4bARq4R7i5eUATzcsC8-16" value="&lt;div&gt;the/&lt;/div&gt;&lt;div&gt;black&lt;/div&gt;" style="rounded=1;whiteSpace=wrap;html=1;container=0;fillColor=#CBD1D6;strokeColor=#23445d;fontSize=13;" parent="1" vertex="1">
          <mxGeometry x="340" y="404.62" width="51.22" height="29.23" as="geometry" />
        </mxCell>
        <mxCell id="I4bARq4R7i5eUATzcsC8-29" value="&lt;div&gt;cat/&lt;/div&gt;&lt;div&gt;the&lt;/div&gt;" style="rounded=1;whiteSpace=wrap;html=1;container=0;fillColor=#E1E9F0;strokeColor=#23445d;fontSize=13;" parent="1" vertex="1">
          <mxGeometry x="169.51" y="448.46000000000004" width="51.22" height="29.23" as="geometry" />
        </mxCell>
        <mxCell id="I4bARq4R7i5eUATzcsC8-30" value="&lt;div&gt;cat/&lt;/div&gt;&lt;div&gt;cat&lt;/div&gt;" style="rounded=1;whiteSpace=wrap;html=1;container=0;fillColor=#929EA6;strokeColor=#23445d;fontSize=13;" parent="1" vertex="1">
          <mxGeometry x="226.73" y="448.46000000000004" width="51.22" height="29.23" as="geometry" />
        </mxCell>
        <mxCell id="I4bARq4R7i5eUATzcsC8-31" value="&lt;div&gt;cat/&lt;/div&gt;&lt;div&gt;is&lt;/div&gt;" style="rounded=1;whiteSpace=wrap;html=1;container=0;fillColor=#E1E9F0;strokeColor=#23445d;fontSize=13;" parent="1" vertex="1">
          <mxGeometry x="283.95000000000005" y="448.46000000000004" width="51.22" height="29.23" as="geometry" />
        </mxCell>
        <mxCell id="I4bARq4R7i5eUATzcsC8-32" value="&lt;div&gt;cat/&lt;/div&gt;&lt;div&gt;black&lt;/div&gt;" style="rounded=1;whiteSpace=wrap;html=1;container=0;fillColor=#D7DEE3;strokeColor=#23445d;fontSize=13;" parent="1" vertex="1">
          <mxGeometry x="340.73" y="448.46000000000004" width="51.22" height="29.23" as="geometry" />
        </mxCell>
        <mxCell id="I4bARq4R7i5eUATzcsC8-33" value="&lt;div&gt;is/&lt;/div&gt;&lt;div&gt;the&lt;/div&gt;" style="rounded=1;whiteSpace=wrap;html=1;container=0;fillColor=#CBD1D6;strokeColor=#23445d;fontSize=13;" parent="1" vertex="1">
          <mxGeometry x="169.51" y="492.31" width="51.22" height="29.23" as="geometry" />
        </mxCell>
        <mxCell id="I4bARq4R7i5eUATzcsC8-34" value="&lt;div&gt;is/&lt;/div&gt;&lt;div&gt;cat&lt;/div&gt;" style="rounded=1;whiteSpace=wrap;html=1;container=0;fillColor=#CBD1D6;strokeColor=#23445d;fontSize=13;" parent="1" vertex="1">
          <mxGeometry x="226.73" y="492.31" width="51.22" height="29.23" as="geometry" />
        </mxCell>
        <mxCell id="I4bARq4R7i5eUATzcsC8-35" value="&lt;div&gt;is/&lt;/div&gt;&lt;div&gt;is&lt;/div&gt;" style="rounded=1;whiteSpace=wrap;html=1;container=0;fillColor=#ADBAC4;strokeColor=#23445d;fontSize=13;" parent="1" vertex="1">
          <mxGeometry x="283.95000000000005" y="492.31" width="51.22" height="29.23" as="geometry" />
        </mxCell>
        <mxCell id="I4bARq4R7i5eUATzcsC8-36" value="&lt;div&gt;is/&lt;/div&gt;&lt;div&gt;black&lt;/div&gt;" style="rounded=1;whiteSpace=wrap;html=1;container=0;fillColor=#CBD1D6;strokeColor=#23445d;fontSize=13;" parent="1" vertex="1">
          <mxGeometry x="340.73" y="492.31" width="51.22" height="29.23" as="geometry" />
        </mxCell>
        <mxCell id="I4bARq4R7i5eUATzcsC8-37" value="&lt;div&gt;black/&lt;/div&gt;&lt;div&gt;the&lt;/div&gt;" style="rounded=1;whiteSpace=wrap;html=1;container=0;fillColor=#E1E9F0;strokeColor=#23445d;fontSize=13;" parent="1" vertex="1">
          <mxGeometry x="169.51" y="536.15" width="51.22" height="29.23" as="geometry" />
        </mxCell>
        <mxCell id="I4bARq4R7i5eUATzcsC8-38" value="&lt;div&gt;black/&lt;/div&gt;&lt;div&gt;cat&lt;/div&gt;" style="rounded=1;whiteSpace=wrap;html=1;container=0;fillColor=#E1E9F0;strokeColor=#23445d;fontSize=13;" parent="1" vertex="1">
          <mxGeometry x="226.73" y="536.15" width="51.22" height="29.23" as="geometry" />
        </mxCell>
        <mxCell id="I4bARq4R7i5eUATzcsC8-39" value="&lt;div&gt;black/&lt;/div&gt;&lt;div&gt;is&lt;/div&gt;" style="rounded=1;whiteSpace=wrap;html=1;container=0;fillColor=#CBD1D6;strokeColor=#23445d;fontSize=13;" parent="1" vertex="1">
          <mxGeometry x="283.95000000000005" y="536.15" width="51.22" height="29.23" as="geometry" />
        </mxCell>
        <mxCell id="I4bARq4R7i5eUATzcsC8-40" value="black/black" style="rounded=1;whiteSpace=wrap;html=1;container=0;fillColor=#ADBAC4;strokeColor=#23445d;fontSize=13;" parent="1" vertex="1">
          <mxGeometry x="340.73" y="536.15" width="51.22" height="29.23" as="geometry" />
        </mxCell>
        <mxCell id="I4bARq4R7i5eUATzcsC8-41" value="" style="rounded=1;whiteSpace=wrap;html=1;fillColor=none;strokeWidth=3;fontSize=13;" parent="1" vertex="1">
          <mxGeometry x="159.95" y="399" width="242.05" height="40" as="geometry" />
        </mxCell>
        <mxCell id="I4bARq4R7i5eUATzcsC8-42" value="" style="rounded=1;whiteSpace=wrap;html=1;fillColor=none;strokeWidth=3;fontSize=13;" parent="1" vertex="1">
          <mxGeometry x="159.95" y="443.08" width="242.05" height="40" as="geometry" />
        </mxCell>
        <mxCell id="I4bARq4R7i5eUATzcsC8-43" value="" style="rounded=1;whiteSpace=wrap;html=1;fillColor=none;strokeWidth=3;fontSize=13;" parent="1" vertex="1">
          <mxGeometry x="159.95" y="486.92" width="242.05" height="40" as="geometry" />
        </mxCell>
        <mxCell id="I4bARq4R7i5eUATzcsC8-44" value="" style="rounded=1;whiteSpace=wrap;html=1;fillColor=none;strokeWidth=3;fontSize=13;" parent="1" vertex="1">
          <mxGeometry x="159.95" y="530.77" width="242.05" height="40" as="geometry" />
        </mxCell>
        <mxCell id="I4bARq4R7i5eUATzcsC8-45" value="" style="group;fontSize=13;" parent="1" vertex="1" connectable="0">
          <mxGeometry x="436.22" y="170" width="363.78" height="190" as="geometry" />
        </mxCell>
        <mxCell id="I4bARq4R7i5eUATzcsC8-9" value="" style="rounded=0;whiteSpace=wrap;html=1;fillColor=#fad7ac;strokeColor=#b46504;container=0;fontSize=13;" parent="I4bARq4R7i5eUATzcsC8-45" vertex="1">
          <mxGeometry width="363.78000000000003" height="190" as="geometry" />
        </mxCell>
        <mxCell id="I4bARq4R7i5eUATzcsC8-10" value="the" style="rounded=1;whiteSpace=wrap;html=1;fillColor=#b0e3e6;strokeColor=#0e8088;container=0;fontSize=13;" parent="I4bARq4R7i5eUATzcsC8-45" vertex="1">
          <mxGeometry x="17.83277111536975" y="14.615384615384642" width="320.9521210035964" height="29.230769230769226" as="geometry" />
        </mxCell>
        <mxCell id="I4bARq4R7i5eUATzcsC8-11" value="cat" style="rounded=1;whiteSpace=wrap;html=1;fillColor=#b1ddf0;strokeColor=#10739e;container=0;fontSize=13;" parent="I4bARq4R7i5eUATzcsC8-45" vertex="1">
          <mxGeometry x="17.83277111536975" y="58.46153846153845" width="320.9521210035964" height="29.230769230769226" as="geometry" />
        </mxCell>
        <mxCell id="I4bARq4R7i5eUATzcsC8-12" value="is" style="rounded=1;whiteSpace=wrap;html=1;fillColor=#d0cee2;strokeColor=#56517e;container=0;fontSize=13;" parent="I4bARq4R7i5eUATzcsC8-45" vertex="1">
          <mxGeometry x="17.83277111536975" y="102.30769230769232" width="320.9521210035964" height="29.230769230769226" as="geometry" />
        </mxCell>
        <mxCell id="I4bARq4R7i5eUATzcsC8-13" value="black" style="rounded=1;whiteSpace=wrap;html=1;fillColor=#fad9d5;strokeColor=#ae4132;container=0;fontSize=13;" parent="I4bARq4R7i5eUATzcsC8-45" vertex="1">
          <mxGeometry x="17.83277111536975" y="146.15384615384608" width="320.9521210035964" height="29.230769230769226" as="geometry" />
        </mxCell>
        <mxCell id="I4bARq4R7i5eUATzcsC8-46" value="" style="group;fontSize=13;" parent="1" vertex="1" connectable="0">
          <mxGeometry x="436.22" y="390" width="363.78" height="190" as="geometry" />
        </mxCell>
        <mxCell id="wuLcwjx7_MEhceyE2ylR-1" value="" style="rounded=0;whiteSpace=wrap;html=1;fillColor=#fad7ac;strokeColor=#b46504;container=0;fontSize=13;" parent="I4bARq4R7i5eUATzcsC8-46" vertex="1">
          <mxGeometry width="363.78" height="190" as="geometry" />
        </mxCell>
        <mxCell id="wuLcwjx7_MEhceyE2ylR-2" value="the&#39;" style="rounded=1;whiteSpace=wrap;html=1;fillColor=#b0e3e6;strokeColor=#0e8088;gradientColor=#A9C4EB;gradientDirection=east;container=0;fontSize=13;" parent="I4bARq4R7i5eUATzcsC8-46" vertex="1">
          <mxGeometry x="18.18899999999991" y="14.615384615384642" width="327.402" height="29.230769230769226" as="geometry" />
        </mxCell>
        <mxCell id="wuLcwjx7_MEhceyE2ylR-3" value="cat&#39;" style="rounded=1;whiteSpace=wrap;html=1;fillColor=#b1ddf0;strokeColor=#10739e;gradientColor=#F19C99;gradientDirection=east;container=0;fontSize=13;" parent="I4bARq4R7i5eUATzcsC8-46" vertex="1">
          <mxGeometry x="18.18899999999991" y="58.46153846153845" width="327.402" height="29.230769230769226" as="geometry" />
        </mxCell>
        <mxCell id="wuLcwjx7_MEhceyE2ylR-4" value="is&#39;" style="rounded=1;whiteSpace=wrap;html=1;fillColor=#d0cee2;strokeColor=#56517e;gradientColor=#D5E8D4;gradientDirection=east;container=0;fontSize=13;" parent="I4bARq4R7i5eUATzcsC8-46" vertex="1">
          <mxGeometry x="18.18899999999991" y="102.30769230769232" width="327.402" height="29.230769230769226" as="geometry" />
        </mxCell>
        <mxCell id="wuLcwjx7_MEhceyE2ylR-5" value="black&#39;" style="rounded=1;whiteSpace=wrap;html=1;fillColor=#fad9d5;strokeColor=#ae4132;gradientColor=#D4E1F5;gradientDirection=east;container=0;fontSize=13;" parent="I4bARq4R7i5eUATzcsC8-46" vertex="1">
          <mxGeometry x="18.18899999999991" y="146.15384615384608" width="327.402" height="29.230769230769226" as="geometry" />
        </mxCell>
      </root>
    </mxGraphModel>
  </diagram>
  <diagram id="0lQL4c0tYpzCxMc2-EbF" name="Page-2">
    <mxGraphModel grid="1" page="1" gridSize="10" guides="1" tooltips="1" connect="1" arrows="1" fold="1" pageScale="1" pageWidth="850" pageHeight="1100" math="0" shadow="0">
      <root>
        <mxCell id="0" />
        <mxCell id="1" parent="0" />
      </root>
    </mxGraphModel>
  </diagram>
</mxfile>
